<?xml version="1.0" standalone="no"?><svg xmlns="http://www.w3.org/2000/svg" viewBox="0 0 1440 320"><path fill="#bf7d00" fill-opacity="1" d="M0,64L40,96C80,128,160,192,240,202.7C320,213,400,171,480,149.3C560,128,640,128,720,133.3C800,139,880,149,960,160C1040,171,1120,181,1200,202.7C1280,224,1360,256,1400,272L1440,288L1440,320L1400,320C1360,320,1280,320,1200,320C1120,320,1040,320,960,320C880,320,800,320,720,320C640,320,560,320,480,320C400,320,320,320,240,320C160,320,80,320,40,320L0,320Z"></path></svg>